<?xml version="1.0" encoding="UTF-8" standalone="no"?>
<!-- Filename: 5267ec4151c9455fa91f9cab8f25d62d0245b81d5fd697e15e8e6096d0c571d8.svg -->
<!-- Created with https://svgstud.io -->
<svg
  version="1.1"
  xmlns="http://www.w3.org/2000/svg"
  xmlns:xlink="http://www.w3.org/1999/xlink"
  xmlns:svg="http://www.w3.org/2000/svg"
  xmlns:rdf="http://www.w3.org/1999/02/22-rdf-syntax-ns#"
  xmlns:cc="http://creativecommons.org/ns#"
  xmlns:dc="http://purl.org/dc/elements/1.1/"
  viewBox="0 0 768 768"
  width="768"
  height="768"
  role="img"
  aria-labelledby="titleID descID"
>
  <title id="titleID">A logo which consists of random squigly lines that looks a bit like a doodle but the lines cannot overlap</title>
  <desc id="descID">AI-generated SVG illustration: A logo which consists of random squigly lines that looks a bit like a doodle but the lines cannot overlap, created on https://svgstud.io</desc>

  <rect width="100%" height="100%" fill="white" />

  <metadata>
    Created by https://svgstud.io and licensed under CC-BY-SA 4.0 license. Please attribute https://svgstud.io
  </metadata>
  <metadata>
    A logo which consists of random squigly lines that looks a bit like a doodle but the lines cannot overlap
  </metadata>
  <metadata>
    7
  </metadata>
  <metadata>
    <rdf:RDF
      xmlns:rdf="http://www.w3.org/1999/02/22-rdf-syntax-ns#"
      xmlns:cc="http://creativecommons.org/ns#"
      xmlns:dc="http://purl.org/dc/elements/1.1/"
    >
      <cc:Work rdf:about="">
        <cc:license rdf:resource="http://creativecommons.org/licenses/by-sa/4.0/" />
        <dc:creator>
          <cc:Agent>
            <dc:title>https://svgstud.io</dc:title>
          </cc:Agent>
        </dc:creator>
      </cc:Work>
      <cc:License rdf:about="http://creativecommons.org/licenses/by-sa/4.0/">
        <cc:permits rdf:resource="http://creativecommons.org/ns#Reproduction" />
        <cc:permits rdf:resource="http://creativecommons.org/ns#Distribution" />
        <cc:requires rdf:resource="http://creativecommons.org/ns#Notice" />
        <cc:requires rdf:resource="http://creativecommons.org/ns#Attribution" />
        <cc:permits rdf:resource="http://creativecommons.org/ns#DerivativeWorks" />
        <cc:requires rdf:resource="http://creativecommons.org/ns#ShareAlike" />
      </cc:License>
    </rdf:RDF>
  </metadata>
  <metadata id="uid">5267ec4151c9455fa91f9cab8f25d62d0245b81d5fd697e15e8e6096d0c571d8</metadata>

  <path stroke="none" fill="black" fill-rule="evenodd" d="M387.50,621.54C370.40,621.81 360.62,621.51 353.50,620.50C348.00,619.72 338.10,617.89 331.50,616.42C324.90,614.96 314.18,612.00 307.68,609.85C301.18,607.70 290.83,603.68 284.68,600.91C278.53,598.15 268.50,592.98 262.38,589.44C254.63,584.95 250.25,583.00 247.88,583.01C246.02,583.02 237.30,584.14 228.50,585.49C219.70,586.85 209.67,587.97 206.20,587.98C202.49,587.99 198.70,587.38 196.97,586.48C195.35,585.65 193.35,583.65 192.52,582.03C191.68,580.42 191.00,578.46 191.00,577.67C191.00,576.89 191.58,575.77 192.28,575.18C192.99,574.60 202.55,572.73 213.53,571.03C224.51,569.34 234.56,567.50 235.86,566.94C237.54,566.23 238.07,565.38 237.70,563.97C237.42,562.89 237.39,562.00 237.64,562.00C237.89,562.00 239.44,562.69 241.07,563.54C242.71,564.38 247.84,567.55 252.47,570.57C257.11,573.59 266.88,578.95 274.20,582.48C281.51,586.02 291.00,590.07 295.29,591.49C299.57,592.91 303.51,593.81 304.04,593.48C304.57,593.15 305.00,588.01 305.00,582.06C305.00,574.32 304.62,570.93 303.68,570.15C302.95,569.55 297.95,567.22 292.56,564.97C287.16,562.73 277.97,558.48 272.13,555.54C266.28,552.59 259.13,548.45 256.24,546.34C253.34,544.23 246.73,539.20 241.54,535.16C236.35,531.12 231.63,528.11 231.04,528.48C230.45,528.84 227.95,532.58 225.48,536.80C222.32,542.20 221.00,545.57 221.00,548.23C221.00,551.30 220.64,552.00 219.06,552.00C217.99,552.00 214.28,549.59 210.81,546.64C207.34,543.70 200.20,536.61 194.94,530.89C189.68,525.18 182.87,517.35 179.80,513.50C176.73,509.65 170.99,501.55 167.05,495.50C163.10,489.45 156.78,478.20 153.00,470.50C149.22,462.80 143.89,449.75 141.15,441.50C138.41,433.25 135.26,422.23 134.14,417.00C133.02,411.77 131.57,402.37 130.92,396.10C130.16,388.87 129.93,376.81 130.29,363.10C130.62,350.48 131.52,337.56 132.47,332.01C133.36,326.80 135.18,318.21 136.52,312.94C137.85,307.66 140.56,298.70 142.54,293.03C144.51,287.36 149.20,276.60 152.97,269.11C156.73,261.63 162.36,251.72 165.47,247.09C168.58,242.47 173.53,235.49 176.47,231.59C179.40,227.69 185.51,220.54 190.03,215.71C194.56,210.87 202.82,202.96 208.38,198.14C213.95,193.32 221.03,187.52 224.11,185.25C227.20,182.99 233.80,178.42 238.79,175.09C243.77,171.76 254.29,165.73 262.17,161.69C270.05,157.64 282.35,152.07 289.50,149.30C296.65,146.53 306.10,143.23 310.50,141.96C314.90,140.70 319.06,139.24 319.75,138.71C320.44,138.19 321.00,136.70 321.00,135.41C321.00,134.12 321.79,132.65 322.75,132.14C323.71,131.62 329.23,130.26 335.00,129.10C340.77,127.94 351.11,126.32 357.97,125.50C364.83,124.67 377.95,124.00 387.13,124.00C396.53,124.00 409.21,124.69 416.16,125.59C422.95,126.46 434.41,128.69 441.64,130.53C448.87,132.38 459.22,135.54 464.64,137.56C470.06,139.59 479.90,143.93 486.50,147.22C493.10,150.51 502.98,156.13 508.46,159.71C513.94,163.30 522.04,168.97 526.46,172.33C530.88,175.68 539.17,182.94 544.87,188.46C550.58,193.98 558.84,202.78 563.23,208.00C567.62,213.22 574.75,222.82 579.06,229.33C583.38,235.83 589.58,246.40 592.84,252.83C596.10,259.25 600.80,269.90 603.28,276.50C605.77,283.10 609.20,294.12 610.90,301.00C612.59,307.88 614.68,318.00 615.54,323.50C616.40,329.00 617.36,342.27 617.68,353.00C618.04,364.76 617.81,377.86 617.11,386.00C616.47,393.43 615.23,403.76 614.36,408.96C613.50,414.16 611.50,423.01 609.92,428.61C608.35,434.22 604.78,444.13 602.00,450.65C599.21,457.17 594.86,466.10 592.34,470.50C589.81,474.90 585.29,482.19 582.31,486.70C579.32,491.21 576.04,495.17 575.01,495.50C573.77,495.89 571.56,494.89 568.49,492.55C565.94,490.60 563.21,489.00 562.42,489.00C561.64,489.00 561.00,488.32 561.00,487.50C561.00,486.67 565.02,478.23 569.94,468.75C574.86,459.26 581.42,444.98 584.51,437.00C587.60,429.03 591.64,416.65 593.48,409.50C595.32,402.35 597.08,394.93 597.39,393.00C597.70,391.07 598.44,385.23 599.03,380.00C599.61,374.77 600.10,361.73 600.12,351.00C600.13,338.10 599.59,327.78 598.52,320.50C597.63,314.45 596.01,305.68 594.93,301.00C593.84,296.32 591.36,287.68 589.41,281.79C587.46,275.90 582.77,264.84 579.00,257.21C575.22,249.58 569.35,239.17 565.95,234.09C562.55,229.00 557.54,222.06 554.82,218.67C552.10,215.28 546.65,209.19 542.71,205.14C538.77,201.08 532.16,194.63 528.02,190.79C523.88,186.95 515.87,180.42 510.21,176.28C504.54,172.15 494.58,165.72 488.06,161.99C481.54,158.27 471.66,153.14 466.09,150.59C460.53,148.04 451.95,144.60 447.02,142.95C442.10,141.31 433.22,138.88 427.29,137.56C421.35,136.24 411.41,134.61 405.18,133.94C398.00,133.17 386.86,132.93 374.68,133.29C361.87,133.67 351.52,134.56 343.50,135.98C336.90,137.15 329.81,138.60 327.75,139.21C324.00,140.32 324.00,140.32 324.00,148.60C324.00,153.15 324.43,157.15 324.95,157.47C325.48,157.79 332.11,157.17 339.70,156.07C347.29,154.98 358.90,153.79 365.50,153.42C372.47,153.04 383.51,153.26 391.85,153.95C399.75,154.60 409.65,155.79 413.85,156.59C418.06,157.39 425.63,159.14 430.68,160.48C435.73,161.82 444.28,164.57 449.68,166.58C455.08,168.60 464.45,172.73 470.50,175.75C476.55,178.77 485.82,184.12 491.11,187.63C496.39,191.14 504.26,197.00 508.61,200.65C512.95,204.30 521.15,212.06 526.84,217.90C532.52,223.73 540.75,233.22 545.13,239.00C550.43,246.01 555.66,254.66 560.84,265.00C565.11,273.52 570.02,284.78 571.75,290.02C573.48,295.26 576.03,305.16 577.42,312.02C578.80,318.88 580.41,331.56 580.98,340.19C581.71,351.15 581.71,360.17 580.97,370.19C580.39,378.06 578.79,390.06 577.43,396.85C576.07,403.64 573.39,413.99 571.47,419.85C569.56,425.71 566.30,433.62 564.21,437.43C562.13,441.24 559.88,444.54 559.21,444.76C558.38,445.04 558.00,443.75 558.00,440.66C558.00,438.18 560.04,428.13 562.53,418.32C565.03,408.52 567.76,396.68 568.60,392.00C569.44,387.32 570.39,376.30 570.71,367.49C571.06,357.74 570.82,347.59 570.11,341.49C569.46,336.00 567.79,326.39 566.39,320.14C565.00,313.90 562.73,305.35 561.35,301.14C559.97,296.94 555.77,287.12 552.01,279.33C548.25,271.53 543.76,263.21 542.03,260.83C540.30,258.45 537.10,254.05 534.92,251.05C532.75,248.05 526.14,240.22 520.23,233.66C514.33,227.09 505.23,218.12 500.00,213.72C494.77,209.32 485.77,202.62 480.00,198.82C474.23,195.03 465.18,189.71 459.90,187.00C454.62,184.29 446.75,180.69 442.40,179.01C438.06,177.33 430.45,174.85 425.50,173.50C420.55,172.15 411.77,170.32 406.00,169.42C399.47,168.40 389.27,167.78 379.00,167.78C369.93,167.77 358.68,168.28 354.00,168.91C349.32,169.54 339.81,171.18 332.86,172.55C325.91,173.92 315.18,176.63 309.03,178.58C302.87,180.53 292.45,184.40 285.87,187.18C279.28,189.96 269.23,195.04 263.52,198.46C257.82,201.89 249.43,207.35 244.88,210.60C240.33,213.84 231.91,221.00 226.17,226.50C220.42,232.00 212.06,241.00 207.58,246.50C203.11,252.00 197.85,258.98 195.89,262.00C193.93,265.02 190.04,271.77 187.24,277.00C184.44,282.23 180.55,290.38 178.61,295.12C176.66,299.86 173.93,308.11 172.54,313.45C171.15,318.78 169.23,327.73 168.26,333.33C166.90,341.17 166.50,349.11 166.51,368.00C166.52,389.58 166.79,393.87 168.82,404.00C170.09,410.32 172.29,419.55 173.70,424.50C175.12,429.45 177.81,437.53 179.68,442.45C181.56,447.38 185.78,456.60 189.08,462.95C192.37,469.30 197.86,478.39 201.28,483.15C204.70,487.91 210.88,495.70 215.00,500.47C219.12,505.24 227.00,512.79 232.50,517.25C238.00,521.71 246.32,527.84 251.00,530.87C255.68,533.91 264.00,538.69 269.50,541.50C275.00,544.30 284.00,548.24 289.50,550.25C295.00,552.25 302.87,554.82 306.98,555.95C311.09,557.08 315.48,558.00 316.73,558.00C318.96,558.00 319.00,557.80 318.99,546.25C318.98,539.79 318.70,533.49 318.37,532.26C317.94,530.66 316.58,529.71 313.64,528.95C311.36,528.37 306.57,526.96 303.00,525.82C299.43,524.69 290.89,521.10 284.02,517.84C277.16,514.58 266.52,508.58 260.39,504.49C254.25,500.40 245.59,493.63 241.14,489.45C235.13,483.80 232.90,481.00 232.44,478.51C232.09,476.68 232.07,474.35 232.40,473.34C232.85,471.93 235.09,471.09 242.09,469.74C247.09,468.76 252.08,467.49 253.17,466.91C255.12,465.87 255.14,464.80 254.83,403.92C254.53,348.30 254.66,342.00 256.06,342.00C256.92,342.00 261.98,346.44 267.31,351.86C272.64,357.28 277.02,362.35 277.05,363.11C277.07,363.87 277.05,383.65 277.00,407.05C276.95,430.46 277.22,451.49 277.58,453.80C278.19,457.57 278.54,458.00 281.05,458.00C282.59,458.00 287.81,457.06 292.67,455.90C297.52,454.75 302.25,453.40 303.18,452.91C304.75,452.06 304.85,444.49 304.67,344.33C304.52,263.86 304.18,236.56 303.32,236.27C302.68,236.06 299.77,237.10 296.84,238.58C293.92,240.06 287.02,244.31 281.51,248.03C276.01,251.74 268.09,257.73 263.91,261.32C259.74,264.92 253.16,271.61 249.29,276.18C245.42,280.76 239.33,289.00 235.75,294.50C232.18,300.00 227.38,308.70 225.09,313.84C222.80,318.98 220.06,326.85 219.00,331.34C217.95,335.83 216.62,343.31 216.04,347.97C215.47,352.63 215.00,362.08 215.00,368.97C215.00,375.86 215.71,385.55 216.57,390.50C217.43,395.45 219.26,402.88 220.64,407.00C222.01,411.12 224.71,418.00 226.64,422.29C230.15,430.08 230.15,430.08 227.61,434.40C226.22,436.77 223.12,440.88 220.72,443.53C217.81,446.75 215.84,448.15 214.79,447.75C213.93,447.42 210.97,442.50 208.21,436.82C205.45,431.15 201.60,421.72 199.65,415.88C197.70,410.04 195.34,401.04 194.41,395.88C193.26,389.51 192.71,381.04 192.69,369.50C192.68,359.80 193.20,349.92 193.90,346.50C194.58,343.20 196.46,335.74 198.08,329.92C199.70,324.10 202.63,315.35 204.60,310.47C206.56,305.59 209.49,298.98 211.11,295.79C212.72,292.59 215.68,287.39 217.69,284.24C219.70,281.08 223.91,275.12 227.05,271.00C230.20,266.88 236.31,260.10 240.63,255.96C244.96,251.81 251.91,245.65 256.08,242.28C260.25,238.90 267.91,233.47 273.09,230.21C278.28,226.94 285.82,222.60 289.86,220.57C293.90,218.54 302.45,214.91 308.85,212.52C315.26,210.13 322.19,207.86 324.25,207.47C327.49,206.87 328.00,207.03 328.01,208.64C328.01,209.66 328.01,265.94 328.00,333.71C327.99,407.11 327.61,457.90 327.06,459.35C326.40,461.07 324.70,462.26 321.31,463.36C318.67,464.22 305.48,467.67 292.00,471.02C278.52,474.38 266.55,477.74 265.38,478.50C264.22,479.25 263.02,480.80 262.73,481.94C262.32,483.47 263.21,484.88 266.19,487.43C268.39,489.32 272.59,491.99 275.51,493.38C278.44,494.76 283.46,496.68 286.67,497.64C290.68,498.83 295.94,499.38 303.50,499.37C309.55,499.37 318.44,498.79 323.26,498.08C328.07,497.37 332.69,497.05 333.51,497.36C334.78,497.85 335.00,501.87 335.00,524.49C335.00,551.05 335.00,551.05 337.39,551.96C338.71,552.46 346.70,553.35 355.14,553.94C365.60,554.67 375.13,554.70 385.00,554.03C392.98,553.50 404.68,552.17 411.00,551.08C417.32,549.99 427.95,547.52 434.61,545.58C441.27,543.64 452.68,539.54 459.97,536.47C467.26,533.40 473.45,531.11 473.71,531.38C473.98,531.65 472.07,534.15 469.46,536.93C466.86,539.72 465.00,542.00 465.34,542.00C465.68,542.00 468.93,540.88 472.57,539.51C476.20,538.14 481.95,535.58 485.34,533.81C488.73,532.05 495.77,527.79 501.00,524.36C506.23,520.92 515.14,513.96 520.81,508.89C526.47,503.82 534.48,495.66 538.59,490.76C542.71,485.85 547.25,480.07 548.67,477.92C550.10,475.76 551.71,474.00 552.26,474.00C552.85,474.00 553.06,475.76 552.77,478.25C552.49,480.60 550.81,484.84 548.99,487.74C545.72,492.98 545.71,493.00 547.11,498.24C548.45,503.28 548.67,503.52 552.35,504.00C556.20,504.50 556.20,504.50 554.08,507.18C552.92,508.65 547.81,513.40 542.74,517.74C537.66,522.08 529.90,528.33 525.50,531.64C521.10,534.94 512.98,540.41 507.46,543.79C501.94,547.17 491.66,552.69 484.63,556.06C477.59,559.42 465.24,564.34 457.17,567.00C449.10,569.65 436.88,572.97 430.00,574.36C423.12,575.76 411.43,577.60 404.00,578.45C396.57,579.30 383.30,579.99 374.50,579.98C365.70,579.97 353.10,579.53 346.50,579.00C339.90,578.47 332.14,577.75 329.25,577.40C324.00,576.77 324.00,576.77 324.00,587.41C324.00,597.79 324.06,598.07 326.46,598.98C327.81,599.50 334.22,600.69 340.71,601.64C349.32,602.90 358.85,603.36 376.00,603.33C396.73,603.31 401.37,602.99 415.38,600.63C424.12,599.17 435.82,596.81 441.38,595.40C446.95,593.99 456.90,591.04 463.50,588.83C470.10,586.63 482.29,581.51 490.58,577.46C498.87,573.41 511.25,566.36 518.08,561.80C524.91,557.23 534.18,550.52 538.69,546.88C543.19,543.24 551.86,535.82 557.94,530.38C564.03,524.95 569.29,519.63 569.63,518.56C570.08,517.18 569.39,515.84 567.28,513.96C565.64,512.49 563.78,509.79 563.14,507.96C562.38,505.80 562.32,504.28 562.94,503.66C563.57,503.03 564.37,503.06 565.21,503.74C565.92,504.32 571.00,507.06 576.50,509.83C582.00,512.60 587.37,515.51 588.43,516.30C590.13,517.57 590.21,518.08 589.10,520.76C588.41,522.43 580.79,530.32 572.17,538.31C563.55,546.30 552.23,556.39 547.00,560.75C541.77,565.11 531.42,572.74 523.98,577.72C516.55,582.70 504.85,589.72 497.98,593.33C491.12,596.94 481.77,601.48 477.21,603.42C472.65,605.37 464.78,608.35 459.71,610.05C454.65,611.75 446.00,614.21 440.50,615.51C435.00,616.81 426.23,618.62 421.00,619.53C414.57,620.64 403.75,621.29 387.50,621.54zM439.89,533.00C437.75,533.00 436.00,532.57 436.00,532.05C436.00,531.52 437.01,530.38 438.25,529.51C439.49,528.64 445.00,524.65 450.50,520.66C456.01,516.67 464.84,509.25 470.15,504.18C475.45,499.12 482.53,491.49 485.88,487.24C489.23,482.98 493.99,476.26 496.45,472.30C498.92,468.34 502.94,461.10 505.40,456.21C507.85,451.32 511.47,442.70 513.43,437.06C515.40,431.41 517.89,422.44 518.98,417.11C520.06,411.78 521.46,400.84 522.08,392.80C522.90,382.07 522.91,374.16 522.11,363.12C521.50,354.84 519.88,342.73 518.50,336.21C517.13,329.69 514.94,321.23 513.64,317.42C512.35,313.62 509.26,306.43 506.79,301.46C504.31,296.50 500.05,288.82 497.31,284.40C494.57,279.99 492.07,275.37 491.75,274.13C491.27,272.31 491.76,271.63 494.33,270.53C496.07,269.78 498.93,268.64 500.68,267.99C502.43,267.35 504.13,266.11 504.46,265.25C504.79,264.38 503.95,262.11 502.53,260.09C501.15,258.12 497.81,254.03 495.11,251.00C490.20,245.50 490.20,245.50 487.50,248.00C486.02,249.38 483.71,252.64 482.38,255.25C481.05,257.86 479.32,260.00 478.53,260.00C477.74,260.00 474.04,257.28 470.30,253.96C466.56,250.64 460.19,245.62 456.14,242.82C452.09,240.02 443.66,235.09 437.40,231.86C431.14,228.64 425.17,226.00 424.14,226.00C422.75,226.00 422.10,226.97 421.64,229.75C421.30,231.81 421.02,243.19 421.01,255.03C421.00,272.88 420.73,276.93 419.44,278.78C418.27,280.45 416.89,281.00 413.88,281.00C411.67,281.00 408.89,280.49 407.68,279.87C406.48,279.24 401.63,275.44 396.89,271.42C392.16,267.39 386.68,263.16 384.73,262.00C381.96,260.37 381.00,260.19 380.38,261.19C379.95,261.89 379.43,310.40 379.22,368.98C379.02,427.57 378.54,475.82 378.16,476.21C377.78,476.61 374.12,477.63 370.03,478.49C365.94,479.35 362.01,479.83 361.30,479.56C360.24,479.16 360.00,455.10 360.00,351.59C360.00,264.20 360.33,223.92 361.04,223.47C361.62,223.12 364.05,224.44 366.46,226.41C368.86,228.38 376.29,235.15 382.96,241.46C389.62,247.76 396.41,253.87 398.04,255.03C401.00,257.14 401.00,257.14 401.15,229.32C401.23,214.02 401.39,200.82 401.50,200.00C401.61,199.18 401.77,197.94 401.85,197.25C401.94,196.54 403.39,196.00 405.25,196.00C407.04,196.00 412.56,197.09 417.52,198.42C422.48,199.75 430.13,202.26 434.52,204.00C438.91,205.74 447.23,209.61 453.00,212.62C458.77,215.62 467.77,221.08 473.00,224.75C478.66,228.73 488.38,237.30 497.05,245.97C506.69,255.59 513.57,263.47 517.43,269.31C520.64,274.15 525.84,283.38 528.99,289.81C532.15,296.24 535.89,305.10 537.32,309.50C538.74,313.90 540.58,320.20 541.39,323.50C542.21,326.80 543.56,334.23 544.39,340.00C545.22,345.77 546.20,356.35 546.56,363.50C546.92,370.67 546.72,383.03 546.12,391.07C545.51,399.08 543.92,411.01 542.58,417.57C541.24,424.13 538.93,433.32 537.45,438.00C535.98,442.68 532.63,451.25 530.02,457.05C527.40,462.85 522.76,471.62 519.70,476.55C516.63,481.47 511.17,489.18 507.56,493.67C503.94,498.17 498.17,504.30 494.74,507.29C491.31,510.29 485.12,514.90 481.00,517.54C476.88,520.17 470.70,523.60 467.28,525.16C463.87,526.72 457.18,529.12 452.42,530.49C447.67,531.87 442.03,533.00 439.89,533.00zM368.22,524.98C366.72,524.98 364.92,524.60 364.21,524.15C363.27,523.55 363.00,520.68 363.21,513.43C363.50,503.52 363.50,503.52 373.50,502.28C379.00,501.59 387.77,499.95 393.00,498.63C398.22,497.31 406.64,494.44 411.70,492.25C416.76,490.06 424.19,486.22 428.22,483.71C432.24,481.20 439.13,476.04 443.52,472.23C447.92,468.43 454.03,462.21 457.10,458.41C460.17,454.61 464.04,449.48 465.70,447.00C467.37,444.52 469.75,440.49 470.99,438.04C472.24,435.58 474.51,429.95 476.04,425.54C477.57,421.12 479.52,414.12 480.37,410.00C481.22,405.88 482.37,396.88 482.92,390.00C483.57,382.04 483.60,373.50 483.02,366.50C482.52,360.45 480.98,351.10 479.60,345.72C478.23,340.35 475.07,331.65 472.58,326.41C470.10,321.16 466.41,314.15 464.39,310.82C462.37,307.50 458.05,301.42 454.79,297.32C451.47,293.14 448.78,288.72 448.68,287.28C448.58,285.87 448.97,284.55 449.55,284.34C450.13,284.13 452.74,285.38 455.34,287.10C457.95,288.83 463.46,293.62 467.59,297.76C471.73,301.89 476.82,307.80 478.92,310.89C481.01,313.97 483.85,318.75 485.23,321.50C486.61,324.25 488.91,329.90 490.33,334.05C491.76,338.21 493.63,345.63 494.50,350.55C495.37,355.47 496.34,365.35 496.67,372.50C497.01,380.12 496.77,390.05 496.07,396.50C495.42,402.55 493.96,411.75 492.84,416.94C491.72,422.14 489.47,430.24 487.83,434.94C486.19,439.65 482.60,447.99 479.86,453.47C477.12,458.95 472.35,466.95 469.26,471.25C466.17,475.54 459.56,482.99 454.57,487.79C449.58,492.60 442.43,498.71 438.67,501.37C434.91,504.04 427.93,508.21 423.17,510.65C418.40,513.08 409.63,516.62 403.68,518.51C397.72,520.40 387.92,522.63 381.89,523.47C375.86,524.31 369.71,524.99 368.22,524.98zM417.09,444.00C416.54,444.00 415.68,443.25 415.17,442.34C414.63,441.37 414.46,428.11 414.76,410.09C415.05,393.27 415.56,378.72 415.90,377.77C416.25,376.82 421.21,371.76 426.92,366.52C432.64,361.29 437.99,357.00 438.81,357.00C440.11,357.00 440.21,361.91 439.60,396.75C438.95,434.06 438.79,436.60 437.01,438.11C435.97,439.00 431.28,440.69 426.60,441.86C421.91,443.04 417.63,444.00 417.09,444.00zM207.87,341.07C208.78,340.58 210.26,339.36 211.17,338.34C212.07,337.33 213.34,334.48 213.98,332.00C214.62,329.52 216.47,323.24 218.07,318.04C219.68,312.84 221.00,308.03 221.00,307.37C221.00,306.70 219.43,305.64 217.52,305.01C215.61,304.37 213.57,304.15 213.01,304.50C212.44,304.85 211.11,306.82 210.06,308.89C209.00,310.95 207.16,315.69 205.95,319.41C204.75,323.14 203.71,329.00 203.63,332.44C203.55,336.41 203.99,339.29 204.86,340.33C205.79,341.45 206.72,341.68 207.87,341.07z" />

</svg>
